<?xml version="1.0" encoding="utf-8"?>
<!-- Generator: Adobe Illustrator 24.2.3, SVG Export Plug-In . SVG Version: 6.00 Build 0)  -->
<svg version="1.1" id="Layer_1" xmlns="http://www.w3.org/2000/svg" xmlns:xlink="http://www.w3.org/1999/xlink" x="0px" y="0px"
	 viewBox="0 0 258.77 213.86" style="enable-background:new 0 0 258.77 213.86;" xml:space="preserve">
<style type="text/css">
	.st0{fill:#141A28;}
	.st1{fill:#0D1933;}
	.st2{fill:#293349;}
	.st3{fill:#FFFFFF;}
	.st4{fill:none;stroke:#BC3131;stroke-width:5;stroke-miterlimit:10;}
	.st5{fill:url(#SVGID_1_);}
	.st6{fill:url(#SVGID_2_);}
	.st7{fill:url(#SVGID_3_);}
	.st8{fill:url(#SVGID_4_);}
	.st9{fill:url(#SVGID_5_);}
</style>
<g id="BG">
	<circle class="st0" cx="112.3" cy="30.55" r="7.87"/>
	<circle class="st1" cx="158.76" cy="46.28" r="7.87"/>
	<circle class="st1" cx="174.5" cy="30.55" r="7.87"/>
	<circle class="st0" cx="65.46" cy="77.76" r="7.87"/>
	<circle class="st0" cx="174.31" cy="93.5" r="7.87"/>
	<circle class="st2" cx="50.1" cy="124.97" r="7.87"/>
	<circle class="st1" cx="189.86" cy="109.24" r="7.87"/>
	<circle class="st3" cx="65.46" cy="140.71" r="7.87"/>
	<circle class="st2" cx="50.1" cy="156.45" r="7.87"/>
	<circle class="st2" cx="18.82" cy="156.45" r="7.87"/>
	<circle class="st2" cx="81.2" cy="156.45" r="7.87"/>
	<circle class="st0" cx="143.4" cy="156.45" r="7.87"/>
	<circle class="st1" cx="189.86" cy="140.71" r="7.87"/>
	<circle class="st1" cx="174.5" cy="156.45" r="7.87"/>
	<circle class="st1" cx="220.96" cy="140.71" r="7.87"/>
	<circle class="st2" cx="205.6" cy="156.45" r="7.87"/>
	<circle class="st2" cx="34.37" cy="172.19" r="7.87"/>
	<circle class="st1" cx="81.2" cy="187.92" r="7.87"/>
	<circle class="st1" cx="112.3" cy="187.92" r="7.87"/>
	<circle class="st2" cx="174.5" cy="187.92" r="7.87"/>
	<circle class="st2" cx="189.86" cy="172.19" r="7.87"/>
	<circle class="st2" cx="205.6" cy="187.92" r="7.87"/>
	<path class="st4" d="M81.2,156.45"/>
	<path class="st4" d="M189.86,140.71"/>
	<path class="st2" d="M174.5,156.45"/>
</g>
<g id="Feeless">
	<circle class="st0" cx="113.73" cy="109.24" r="41.98"/>
	
		<linearGradient id="SVGID_1_" gradientUnits="userSpaceOnUse" x1="46.9327" y1="169.7154" x2="155.9333" y2="169.7154" gradientTransform="matrix(1 0 0 -1 0 216)">
		<stop  offset="0" style="stop-color:#E0E0E0"/>
		<stop  offset="1" style="stop-color:#4A90E2"/>
	</linearGradient>
	<path class="st5" d="M129.23,38.57c-3.01-0.58-5.8,0.56-7.55,2.61c-1.37,1.61-3.33,2.61-5.45,2.61c-2,0-4.47,0-6.66,0
		c-2.74,0-5.45-0.97-7.34-2.95c-1.43-1.49-3.44-2.42-5.67-2.42c-2.23,0-4.24,0.93-5.67,2.42c-1.89,1.98-4.61,2.95-7.34,2.95h-5.07
		c-2.74,0-5.45-0.97-7.34-2.95c-1.43-1.49-3.44-2.42-5.67-2.42c-2.23,0-4.24,0.93-5.67,2.42c-1.89,1.98-4.61,2.95-7.34,2.95h-5.35
		c-2.74,0-5.28-1.2-7.23-3.12c-1.76-1.72-4.32-2.63-7.07-2.1c-3.07,0.59-5.55,3.06-6.15,6.13c-0.98,5.04,2.85,9.45,7.71,9.45
		c2.23,0,4.24-0.93,5.67-2.42c1.89-1.98,4.61-2.95,7.34-2.95h5.07c2.74,0,5.45,0.97,7.34,2.95c1.43,1.49,3.44,2.42,5.67,2.42
		c2.23,0,4.24-0.93,5.67-2.42c1.89-1.98,4.61-2.95,7.34-2.95h5.07c2.74,0,5.45,0.97,7.34,2.95c1.43,1.49,3.44,2.42,5.67,2.42
		c2.23,0,4.24-0.93,5.67-2.42c1.89-1.98,4.61-2.95,7.34-2.95h5.07c2.74,0,5.45,0.97,7.34,2.95c1.43,1.49,3.44,2.42,5.67,2.42
		c4.86,0,8.7-4.41,7.71-9.45C134.78,41.63,132.3,39.16,129.23,38.57z"/>
	
		<linearGradient id="SVGID_2_" gradientUnits="userSpaceOnUse" x1="187.0664" y1="91.0207" x2="233.887" y2="91.0207" gradientTransform="matrix(1 0 0 -1 0 216)">
		<stop  offset="0" style="stop-color:#E0E0E0"/>
		<stop  offset="1" style="stop-color:#4A90E2"/>
	</linearGradient>
	<path class="st6" d="M207.17,117.26c-2.75-0.53-5.31,0.37-7.07,2.1c-1.95,1.92-4.49,3.12-7.23,3.12h-5.64
		c-2.74,0-5.28-1.2-7.23-3.12c-1.76-1.72-4.32-2.63-7.07-2.1c-3.07,0.59-5.55,3.06-6.15,6.14c-0.98,5.04,2.85,9.45,7.71,9.45
		c2.23,0,4.24-0.93,5.67-2.42c1.89-1.98,4.61-2.95,7.34-2.95h5.07c2.74,0,5.45,0.97,7.34,2.95c1.43,1.49,3.44,2.42,5.67,2.42
		c4.86,0,8.7-4.41,7.71-9.45C212.72,120.32,210.24,117.85,207.17,117.26z"/>
	
		<linearGradient id="SVGID_3_" gradientUnits="userSpaceOnUse" x1="88.4871" y1="43.8157" x2="197.4877" y2="43.8157" gradientTransform="matrix(1 0 0 -1 0 216)">
		<stop  offset="0" style="stop-color:#E0E0E0"/>
		<stop  offset="1" style="stop-color:#4A90E2"/>
	</linearGradient>
	<path class="st7" d="M160.33,164.47c-2.75-0.53-5.31,0.37-7.07,2.1c-1.95,1.92-4.49,3.12-7.23,3.12h-5.35
		c-2.74,0-5.45-0.97-7.34-2.95c-1.43-1.49-3.44-2.42-5.67-2.42c-2.23,0-4.24,0.93-5.67,2.42c-1.89,1.97-4.61,2.95-7.34,2.95h-5.07
		c-2.74,0-5.45-0.97-7.34-2.95c-1.43-1.49-3.44-2.42-5.67-2.42c-2.23,0-4.24,0.93-5.67,2.42c-1.89,1.97-4.61,2.95-7.34,2.95H78.2
		c-2.74,0-5.28-1.2-7.23-3.12c-1.76-1.72-4.32-2.63-7.07-2.1c-3.07,0.59-5.55,3.06-6.15,6.13c-0.98,5.04,2.85,9.45,7.71,9.45
		c2.23,0,4.24-0.93,5.67-2.42c1.89-1.98,4.61-2.95,7.34-2.95h5.07c2.74,0,5.45,0.97,7.34,2.95c1.43,1.49,3.44,2.42,5.67,2.42
		s4.24-0.93,5.67-2.42c1.89-1.98,4.61-2.95,7.34-2.95h5.07c2.74,0,5.45,0.97,7.34,2.95c1.43,1.49,3.44,2.42,5.67,2.42
		s4.24-0.93,5.67-2.42c1.89-1.98,4.61-2.95,7.34-2.95h5.07c2.74,0,5.45,0.97,7.34,2.95c1.43,1.49,3.44,2.42,5.67,2.42
		c4.86,0,8.7-4.41,7.71-9.45C165.88,167.53,163.4,165.06,160.33,164.47z"/>
	<path class="st2" d="M238.08,54.31c-2.75-0.53-5.31,0.37-7.07,2.1c-1.95,1.92-4.49,3.12-7.23,3.12h-5.35
		c-2.74,0-5.45-0.97-7.34-2.95c-1.43-1.49-3.44-2.42-5.67-2.42s-4.24,0.93-5.67,2.42c-1.89,1.98-4.61,2.95-7.34,2.95h-5.07
		c-2.74,0-5.45-0.97-7.34-2.95c-1.43-1.49-3.44-2.42-5.67-2.42s-4.24,0.93-5.67,2.42c-1.89,1.98-4.61,2.95-7.34,2.95h-5.35
		c-2.74,0-5.28-1.2-7.23-3.12c-1.76-1.72-4.32-2.63-7.07-2.1c-3.07,0.59-5.55,3.06-6.15,6.14c-0.98,5.04,2.85,9.45,7.71,9.45
		c2.23,0,4.24-0.93,5.67-2.42c1.89-1.98,4.61-2.95,7.34-2.95h5.07c2.74,0,5.45,0.97,7.34,2.95c1.43,1.49,3.44,2.42,5.67,2.42
		s4.24-0.93,5.67-2.42c1.89-1.98,4.61-2.95,7.34-2.95h5.07c2.74,0,5.45,0.97,7.34,2.95c1.43,1.49,3.44,2.42,5.67,2.42
		s4.24-0.93,5.67-2.42c1.89-1.98,4.61-2.95,7.34-2.95h5.07c2.74,0,5.45,0.97,7.34,2.95c1.43,1.49,3.44,2.42,5.67,2.42
		c4.86,0,8.7-4.41,7.71-9.45C243.63,57.37,241.15,54.9,238.08,54.31z"/>
	
		<linearGradient id="SVGID_4_" gradientUnits="userSpaceOnUse" x1="49.6406" y1="148.3857" x2="33.0069" y2="108.4649" gradientTransform="matrix(1 0 0 -1 0 216)">
		<stop  offset="0" style="stop-color:#042C8E"/>
		<stop  offset="0.7933" style="stop-color:#4A90E2"/>
		<stop  offset="0.9804" style="stop-color:#70C0EA"/>
	</linearGradient>
	<path class="st8" d="M51.58,85.81c-0.93-0.2-1.84-0.22-2.7-0.11c-1.82,0.24-3.65-0.48-4.94-1.79l-0.05-0.05
		c-1.3-1.31-2.01-3.14-1.75-4.97c0.13-0.87,0.11-1.79-0.08-2.74c-0.63-3.09-3.13-5.56-6.23-6.12c-5.48-0.99-10.19,3.7-9.21,9.18
		c0.55,3.09,3,5.6,6.07,6.25c0.93,0.2,1.83,0.22,2.69,0.11c1.82-0.24,3.65,0.49,4.94,1.79l0.06,0.06c1.32,1.33,1.97,3.19,1.72,5.05
		c-0.04,0.34-0.07,0.68-0.07,1.03s0.02,0.69,0.07,1.03c0.25,1.86-0.4,3.72-1.72,5.05l-0.06,0.06c-1.29,1.31-3.11,2.04-4.94,1.79
		c-0.86-0.11-1.76-0.09-2.69,0.11c-3.07,0.65-5.52,3.16-6.07,6.25c-0.97,5.48,3.73,10.17,9.21,9.18c3.1-0.56,5.6-3.04,6.23-6.12
		c0.19-0.95,0.21-1.87,0.08-2.74c-0.27-1.82,0.45-3.65,1.75-4.97l0.05-0.05c1.37-1.38,3.29-1.95,5.23-1.76
		c0.24,0.02,0.49,0.03,0.74,0.03c4.83,0,8.64-4.35,7.74-9.34C57.09,88.95,54.65,86.45,51.58,85.81z"/>
	
		<linearGradient id="SVGID_5_" gradientUnits="userSpaceOnUse" x1="118.3723" y1="161.1423" x2="113.0258" y2="109.8156" gradientTransform="matrix(1 0 0 -1 0 216)">
		<stop  offset="0" style="stop-color:#042C8E"/>
		<stop  offset="0.7933" style="stop-color:#4A90E2"/>
		<stop  offset="0.9804" style="stop-color:#70C0EA"/>
	</linearGradient>
	<path class="st9" d="M128.31,104.15c-2.66-2.51-6.88-2.52-9.55-0.02c-0.19,0.17-0.36,0.35-0.52,0.54
		c-1.09,1.26-2.65,2.03-4.32,2.04h-0.34c-1.67,0.02-3.23-0.74-4.32-2.01c-0.04-0.05-0.09-0.1-0.14-0.15
		c-0.03-0.03-0.05-0.06-0.08-0.09l-0.01-0.01c-0.04-0.05-0.09-0.09-0.13-0.14c-0.05-0.05-0.1-0.1-0.15-0.15l-0.01-0.01
		c-0.03-0.02-0.05-0.05-0.08-0.07c-0.05-0.05-0.1-0.1-0.16-0.14c-1.26-1.09-2.03-2.65-2.05-4.32v-0.33
		c-0.02-1.67,0.74-3.24,2.02-4.32c0.06-0.05,0.11-0.1,0.17-0.15c0.03-0.03,0.06-0.05,0.08-0.08l0.01-0.01
		c0.05-0.04,0.09-0.09,0.14-0.14s0.1-0.09,0.14-0.14l0.01-0.01c0.03-0.03,0.05-0.06,0.07-0.08c0.05-0.05,0.1-0.11,0.15-0.16
		c1.09-1.26,2.65-2.03,4.32-2.05h0.33c1.67-0.02,3.24,0.74,4.32,2.02c0.16,0.19,0.34,0.37,0.52,0.55c2.67,2.53,6.91,2.53,9.59,0
		c2.93-2.76,2.92-7.41-0.01-10.17c-2.66-2.51-6.88-2.52-9.55-0.02c-0.19,0.17-0.36,0.35-0.52,0.54c-1.09,1.26-2.65,2.03-4.32,2.04
		h-0.34c-1.67,0.02-3.23-0.74-4.32-2.01c-0.16-0.19-0.34-0.37-0.52-0.55c-1.25-1.18-2.83-1.8-4.44-1.88c-0.01,0-0.02,0-0.03,0
		c-0.09,0-0.18-0.01-0.27-0.01c-0.12,0-0.23,0-0.35,0.01c-0.01,0-0.02,0-0.03,0c-0.09,0-0.18,0.01-0.27,0.02c-0.02,0-0.04,0-0.06,0
		c-0.09,0.01-0.17,0.02-0.26,0.03c-0.02,0-0.05,0.01-0.07,0.01c-0.08,0.01-0.16,0.02-0.24,0.04c-0.03,0.01-0.06,0.01-0.09,0.02
		c-0.07,0.01-0.15,0.03-0.22,0.05c-0.04,0.01-0.07,0.02-0.11,0.03c-0.07,0.02-0.13,0.03-0.2,0.05c-0.05,0.01-0.09,0.02-0.13,0.04
		c-0.06,0.02-0.12,0.04-0.18,0.05c-0.05,0.02-0.11,0.04-0.16,0.05c-0.05,0.02-0.1,0.03-0.15,0.05c-0.06,0.02-0.13,0.05-0.19,0.07
		c-0.04,0.02-0.08,0.03-0.12,0.05c-0.08,0.03-0.15,0.07-0.22,0.1c-0.03,0.01-0.05,0.02-0.08,0.04c-0.09,0.04-0.18,0.09-0.27,0.14
		c-0.01,0.01-0.02,0.01-0.03,0.02c-0.5,0.28-0.98,0.62-1.41,1.03c-0.01,0.01-0.02,0.02-0.03,0.03c-0.04,0.04-0.09,0.08-0.13,0.13
		c-0.04,0.04-0.09,0.08-0.13,0.13c-0.01,0.01-0.02,0.02-0.03,0.03c-0.41,0.43-0.75,0.91-1.03,1.41c-0.01,0.01-0.01,0.02-0.02,0.03
		c-0.05,0.09-0.09,0.18-0.14,0.27c-0.01,0.02-0.02,0.05-0.03,0.07c-0.04,0.08-0.07,0.15-0.1,0.23c-0.02,0.04-0.03,0.07-0.04,0.11
		c-0.03,0.07-0.05,0.13-0.08,0.2c-0.02,0.05-0.03,0.09-0.05,0.14c-0.02,0.06-0.04,0.12-0.06,0.17c-0.02,0.05-0.03,0.11-0.05,0.16
		c-0.01,0.05-0.03,0.1-0.04,0.15c-0.02,0.06-0.03,0.12-0.05,0.18c-0.01,0.04-0.02,0.09-0.03,0.13c-0.01,0.07-0.03,0.13-0.04,0.2
		c-0.01,0.04-0.01,0.08-0.02,0.11c-0.01,0.07-0.03,0.14-0.04,0.22c0,0.03-0.01,0.07-0.01,0.1c-0.01,0.08-0.02,0.15-0.03,0.23
		c0,0.03,0,0.06-0.01,0.09c-0.01,0.08-0.01,0.16-0.02,0.23c-0.01,0.11-0.01,0.22-0.01,0.33c0,0.02,0,0.03,0,0.05
		c0,0.1,0,0.2,0.01,0.3c0,0.01,0,0.01,0,0.02c0.08,1.6,0.7,3.17,1.86,4.41c0.17,0.19,0.35,0.36,0.54,0.52
		c1.26,1.09,2.03,2.65,2.04,4.32v0.34c0.02,1.67-0.74,3.23-2.01,4.32c-0.19,0.16-0.37,0.34-0.55,0.52c-1.17,1.24-1.8,2.83-1.88,4.43
		c0,0.01,0,0.02,0,0.03c0,0.06,0,0.12,0,0.19c0,0.05,0,0.1,0,0.15c0,0.02,0,0.03,0,0.05c0,0.1,0,0.2,0.01,0.3c0,0.01,0,0.01,0,0.02
		c0.08,1.6,0.7,3.17,1.86,4.41c0.17,0.19,0.35,0.36,0.54,0.52c1.26,1.09,2.03,2.65,2.04,4.32v0.34c0.02,1.67-0.74,3.23-2.01,4.32
		c-0.19,0.16-0.37,0.34-0.55,0.52c-2.52,2.67-2.53,6.91,0,9.59c2.76,2.93,7.41,2.92,10.17,0c2.51-2.67,2.52-6.88,0.02-9.56
		c-0.17-0.19-0.35-0.36-0.54-0.52c-1.26-1.09-2.03-2.65-2.05-4.32v-0.33c-0.02-1.67,0.74-3.24,2.02-4.32
		c0.06-0.05,0.11-0.1,0.17-0.15c0.03-0.03,0.06-0.05,0.08-0.08l0.01-0.01c0.05-0.04,0.09-0.09,0.14-0.14s0.1-0.09,0.14-0.14
		l0.01-0.01c0.03-0.03,0.05-0.06,0.07-0.08c0.05-0.05,0.1-0.11,0.15-0.16c1.09-1.26,2.65-2.03,4.32-2.05h0.33
		c1.67-0.02,3.24,0.74,4.32,2.02c0.16,0.19,0.34,0.37,0.52,0.55c2.67,2.53,6.91,2.53,9.59,0
		C131.24,111.56,131.24,106.91,128.31,104.15z"/>
</g>
</svg>
