<svg xmlns="http://www.w3.org/2000/svg" xmlns:xlink="http://www.w3.org/1999/xlink" viewBox="0 0 186.97 173.11"><defs><style>.cls-1{fill:#293349;}.cls-2{fill:#181c29;}.cls-3{fill:#0d1933;}.cls-4{fill:url(#linear-gradient);}.cls-5{fill:url(#linear-gradient-2);}.cls-6{fill:url(#linear-gradient-3);}.cls-7{fill:url(#linear-gradient-4);}.cls-8{fill:url(#linear-gradient-5);}</style><linearGradient id="linear-gradient" x1="39.85" y1="100.89" x2="136.09" y2="220.65" gradientUnits="userSpaceOnUse"><stop offset="0.03" stop-color="#1d82dd"/><stop offset="0.05" stop-color="#1973c5"/><stop offset="0.08" stop-color="#125da2"/><stop offset="0.12" stop-color="#0d4b86"/><stop offset="0.16" stop-color="#093d70"/><stop offset="0.2" stop-color="#063460"/><stop offset="0.25" stop-color="#052e57"/><stop offset="0.32" stop-color="#042c54"/><stop offset="0.33" stop-color="#0e2d51"/><stop offset="0.48" stop-color="#743938"/><stop offset="0.6" stop-color="#bf4225"/><stop offset="0.68" stop-color="#ed4719"/><stop offset="0.72" stop-color="#ff4915"/><stop offset="0.78" stop-color="#fd501a"/><stop offset="0.87" stop-color="#f76328"/><stop offset="0.97" stop-color="#ed823f"/><stop offset="1" stop-color="#e98e48"/></linearGradient><linearGradient id="linear-gradient-2" x1="148.47" y1="162.23" x2="184.12" y2="118.03" xlink:href="#linear-gradient"/><linearGradient id="linear-gradient-3" x1="93.3" y1="-17.35" x2="14.17" y2="79.6" xlink:href="#linear-gradient"/><linearGradient id="linear-gradient-4" x1="112.37" y1="152.8" x2="104.53" y2="5" gradientUnits="userSpaceOnUse"><stop offset="0" stop-color="#042c54"/><stop offset="0.79" stop-color="#4a90e2"/><stop offset="0.98" stop-color="#70c0ea"/></linearGradient><linearGradient id="linear-gradient-5" x1="109.81" y1="186.42" x2="109.81" y2="41.82" xlink:href="#linear-gradient"/></defs><g id="BG"><circle class="cls-1" cx="7.87" cy="23.61" r="7.87"/><circle class="cls-2" cx="70.07" cy="23.61" r="7.87"/><circle class="cls-1" cx="54.71" cy="39.34" r="7.87"/><circle class="cls-2" cx="116.9" cy="39.34" r="7.87"/><circle class="cls-3" cx="23.61" cy="7.87" r="7.87"/><circle class="cls-3" cx="116.9" cy="7.87" r="7.87"/><circle class="cls-3" cx="148" cy="39.34" r="7.87"/><circle class="cls-3" cx="7.87" cy="55.08" r="7.87"/><circle class="cls-1" cx="23.61" cy="70.82" r="7.87"/><circle class="cls-2" cx="148" cy="70.82" r="7.87"/><circle class="cls-1" cx="179.1" cy="70.82" r="7.87"/><circle class="cls-2" cx="38.97" cy="86.56" r="7.87"/><circle class="cls-1" cx="23.61" cy="102.29" r="7.87"/><circle class="cls-3" cx="163.36" cy="86.56" r="7.87"/><circle class="cls-3" cx="179.1" cy="102.29" r="7.87"/><circle class="cls-2" cx="7.87" cy="118.03" r="7.87"/><circle class="cls-2" cx="116.9" cy="133.77" r="7.87"/><circle class="cls-3" cx="23.61" cy="165.25" r="7.87"/><circle class="cls-3" cx="85.8" cy="165.25" r="7.87"/><circle class="cls-3" cx="132.26" cy="149.51" r="7.87"/><circle class="cls-3" cx="148" cy="165.25" r="7.87"/><path class="cls-4" d="M87.9,149.2a8.06,8.06,0,0,0-2.71-.12,5.3,5.3,0,0,1-4.53-1.46L80,147a5.43,5.43,0,0,1-1.39-4.66A7.86,7.86,0,1,0,71.86,149a5.33,5.33,0,0,1,4.54,1.46l.63.65a5.43,5.43,0,0,1,1.39,4.66,8,8,0,0,0,.08,2.75,7.87,7.87,0,1,0,9.4-9.27Z" transform="translate(-16.14 -7.38)"/><path class="cls-5" d="M178,117.68a7.86,7.86,0,0,0-6.29,8.89,5.43,5.43,0,0,1-1.39,4.66l-.64.65a5.24,5.24,0,0,1-4.53,1.46,8.06,8.06,0,0,0-2.71.12,7.87,7.87,0,1,0,9.4,9.27,7.75,7.75,0,0,0,.07-2.75,5.46,5.46,0,0,1,1.4-4.66l.63-.65a5.31,5.31,0,0,1,4.53-1.46,8,8,0,0,0,2.71-.11A7.87,7.87,0,0,0,178,117.68Z" transform="translate(-16.14 -7.38)"/><path class="cls-1" d="M181.19,23.3a7.79,7.79,0,0,0-2.71-.12A5.31,5.31,0,0,1,174,21.72l-.63-.65a5.46,5.46,0,0,1-1.4-4.66,7.75,7.75,0,0,0-.07-2.75,7.87,7.87,0,0,0-15.58,1.59,8.66,8.66,0,0,0,.1,1.25A5.13,5.13,0,0,1,154.9,21l-.81.81a5.36,5.36,0,0,1-4.59,1.43,8.14,8.14,0,0,0-2.73.09,7.86,7.86,0,1,0,9.43,6.61,5.33,5.33,0,0,1,1.43-4.59l.81-.81A5.15,5.15,0,0,1,162.89,23a7.44,7.44,0,0,0,1.25.1,7,7,0,0,0,1.12-.08,5.21,5.21,0,0,1,4.48,1.53l.59.6a5.43,5.43,0,0,1,1.39,4.66,8,8,0,0,0,.07,2.75,7.88,7.88,0,1,0,9.4-9.27Z" transform="translate(-16.14 -7.38)"/><path class="cls-1" d="M72.49,164.92a8.2,8.2,0,0,0-2.74-.09,5.36,5.36,0,0,1-4.59-1.43l-.87-.87a5.26,5.26,0,0,1-1.4-4.52,7.59,7.59,0,0,0-.06-2.64,7.91,7.91,0,0,0-6.15-6.2,7.74,7.74,0,0,0-2.62-.08,5.21,5.21,0,0,1-4.47-1.44l-.67-.68a5.43,5.43,0,0,1-1.39-4.66,8,8,0,0,0-.07-2.75,7.88,7.88,0,1,0-9.4,9.27,8,8,0,0,0,2.7.12,5.33,5.33,0,0,1,4.54,1.46l.66.68a5.33,5.33,0,0,1,1.37,4.6,7.76,7.76,0,0,0,.05,2.67,7.88,7.88,0,0,0,6.18,6.24,7.72,7.72,0,0,0,2.66.07,5.3,5.3,0,0,1,4.55,1.41l.85.85a5.36,5.36,0,0,1,1.43,4.6,7.87,7.87,0,1,0,9.44-6.61Z" transform="translate(-16.14 -7.38)"/><path class="cls-6" d="M53.62,23.25A7.85,7.85,0,0,0,47.4,29.4a7.75,7.75,0,0,0-.07,2.75,5.46,5.46,0,0,1-1.4,4.66l-.63.65a5.32,5.32,0,0,1-4.53,1.46,7.78,7.78,0,0,0-2.71.11,7.88,7.88,0,1,0,9.47,6.53,5.43,5.43,0,0,1,1.39-4.66l.64-.65a5.28,5.28,0,0,1,4.53-1.47,7.87,7.87,0,1,0-.47-15.53Z" transform="translate(-16.14 -7.38)"/><path class="cls-1" d="M196.88,164.92a7.81,7.81,0,0,0-5.14.66L189.11,163a6.52,6.52,0,0,1-1.77-5.32c0-.25,0-.49,0-.75s0-.5,0-.74a6.51,6.51,0,0,1,1.77-5.32l.06-.07a6.06,6.06,0,0,1,5.05-1.8,7.75,7.75,0,0,0,2.66-.11,7.87,7.87,0,1,0-9.34-9.33,8,8,0,0,0-.1,2.66,6,6,0,0,1-1.8,5l-.07.07a6,6,0,0,1-5,1.8,7.87,7.87,0,1,0-1,15.67c.26,0,.5,0,.75,0a6.53,6.53,0,0,1,5.32,1.77l.07.06a6.06,6.06,0,0,1,1.8,5,8,8,0,0,0,.1,2.66,7.87,7.87,0,1,0,9.34-9.34Z" transform="translate(-16.14 -7.38)"/></g><g id="Crab"><path class="cls-7" d="M156,102.07l-1-1-.91-.87a3.38,3.38,0,0,0,.34-2.54c-.48-1.53-4.19-1.92-6.1-2.93l-1-1c-.73-1.85,2.72-5.86,1.61-7.5S142.34,86,141,84.52s.85-6.4-.74-7.7-6.39,1.48-8.16.4-1.07-6.36-3-7.19-5.68,3.13-7.7,2.56-2.93-5.81-5-6.09S111.85,71,109.72,71s-4.58-4.8-6.62-4.52-3,5.54-5,6.09-5.81-3.38-7.7-2.56-1.24,6.12-3,7.19-6.58-1.7-8.15-.4.63,6.2-.74,7.7-6.82.11-8,1.77,2.46,5.78,1.58,7.59a1.37,1.37,0,0,1-.21.3l-.1.1C70.35,95.69,65.56,96,65,97.7a1.4,1.4,0,0,0,0,.76,7.76,7.76,0,0,0,.67,1.63l-1.07,1-1,1a3.35,3.35,0,0,0-.45,4.4L74,121.82a1,1,0,0,0,1,.39.91.91,0,0,0,.77-1L73,107l.93-.56c7.28,4.47,19.69,10,37,9.66,16.84-.3,28.53-5.26,35.3-9.29l.31.19-2.7,14.18a.89.89,0,0,0,.42.91,1,1,0,0,0,1.33-.25l10.85-15.35A3.35,3.35,0,0,0,156,102.07Z" transform="translate(-16.14 -7.38)"/><path class="cls-8" d="M163,103.26l-.81-.77-5.78-5.58c.65-.51,1.21-1,1.65-1.37h0a8.74,8.74,0,0,0,2.29-2.85,4.46,4.46,0,0,0,.51-3.34c-.68-2.31-7.13-2.46-8.12-4.62s3.1-7.16,1.81-9.17-7.52-.34-9.09-2.14,1-7.74-.84-9.31-7.31,1.79-9.33.49-1.23-7.69-3.42-8.69-6.49,3.77-8.81,3.1-3.34-7-5.74-7.37-5.15,5.46-7.58,5.46-5.24-5.79-7.57-5.46-3.47,6.7-5.75,7.37-6.64-4.09-8.81-3.1-1.41,7.4-3.42,8.69-7.52-2-9.32-.49.73,7.5-.84,9.3-7.79.14-9.09,2.15,2.81,7,1.81,9.17S59.34,87,58.66,89.35a1.76,1.76,0,0,0,0,.91,9.52,9.52,0,0,0,4.44,5.81l.58.35-6.28,6.07-.81.77a3.69,3.69,0,0,0-.58,4.59l11.86,19.32a.9.9,0,0,0,1.65-.67l-4-18.28,8.15-5.51c1.08.59,2.22,1.17,3.43,1.73l-.45,2-.45,2-.27,1.22a12,12,0,0,0,.76,7.12,11.65,11.65,0,0,0,3.38,4.42c.37.28.74.55,1.13.79l.29.18.23.12.44.24,1.76,1,.19.1a7.42,7.42,0,0,0-.44,1.68c-.66,5.18,4.23,10.07,10.93,10.93a14.61,14.61,0,0,0,7.66-1h0l-6.49-6.61a1,1,0,0,1,.74-1.69l11.48.39c-.11-4.75-4.76-9-11-9.82a14,14,0,0,0-9.33,1.9l-.66-.54-1.56-1.26-.4-.31-.18-.15-.12-.12a4.58,4.58,0,0,1-.42-.46,4.73,4.73,0,0,1-1-2.15,4.51,4.51,0,0,1,.12-2.2c.06-.17.12-.33.19-.49l.12-.24.19-.45.8-1.84.58-1.33a77.11,77.11,0,0,0,25.87,3.82,85.86,85.86,0,0,0,22.36-3.28l.26.6a7.78,7.78,0,0,1,.63,5.13,8.47,8.47,0,0,1-2.39,4.29,14.07,14.07,0,0,0-9.4-1.35c-6.16,1.16-10.57,5.69-10.4,10.43l12.08-1.1a.73.73,0,0,1,.62,1.22L118.42,135a14.6,14.6,0,0,0,7.7.57c6.65-1.25,11.25-6.41,10.29-11.54a7.43,7.43,0,0,0-.42-1.39,13.82,13.82,0,0,0,2.35-2,15.2,15.2,0,0,0,2.75-4.16,15.65,15.65,0,0,0,.83-10.17l-.18-.81c1.75-.74,3.38-1.5,4.87-2.26l7.51,5.07-4,18.28a.9.9,0,0,0,1.65.67l11.86-19.32A3.7,3.7,0,0,0,163,103.26Z" transform="translate(-16.14 -7.38)"/></g></svg>