<?xml version="1.0" encoding="UTF-8" standalone="no"?>
<!DOCTYPE svg PUBLIC "-//W3C//DTD SVG 1.1//EN" "http://www.w3.org/Graphics/SVG/1.1/DTD/svg11.dtd">
<svg version="1.1" xmlns="http://www.w3.org/2000/svg" xmlns:xlink="http://www.w3.org/1999/xlink" preserveAspectRatio="xMidYMid meet" viewBox="0 0 100 100" width="100" height="100"><defs><path d="M69.44 4.2L69.9 4.24L70.36 4.3L70.81 4.38L71.26 4.48L71.71 4.59L72.16 4.73L72.6 4.88L73.03 5.04L73.46 5.23L73.89 5.43L74.31 5.65L74.72 5.89L75.12 6.15L75.52 6.42L75.91 6.71L76.28 7.02L76.65 7.35L77.01 7.69L77.35 8.05L77.68 8.42L77.99 8.8L78.28 9.18L78.55 9.58L78.81 9.98L79.04 10.39L79.26 10.81L79.47 11.24L79.65 11.67L79.82 12.11L79.97 12.55L80.1 12.99L80.21 13.44L80.31 13.9L80.39 14.35L80.45 14.81L80.49 15.27L80.52 15.73L80.53 16.19L80.52 16.65L80.49 17.11L80.45 17.57L80.39 18.02L80.31 18.48L80.21 18.93L80.09 19.38L79.96 19.82L79.81 20.27L79.64 20.7L79.46 21.13L79.26 21.56L79.04 21.97L78.8 22.38L78.55 22.79L78.27 23.18L77.98 23.57L77.68 23.94L77.35 24.31L77.01 24.67L76.65 25.01L76.29 25.33L75.91 25.64L75.52 25.93L75.13 26.2L74.73 26.46L74.31 26.69L73.9 26.91L73.47 27.11L73.04 27.3L72.61 27.46L72.16 27.61L71.72 27.74L71.27 27.86L70.82 27.96L70.36 28.03L69.9 28.1L69.44 28.14L68.98 28.17L68.52 28.17L68.06 28.17L67.6 28.14L67.14 28.1L66.68 28.03L66.23 27.96L65.78 27.86L65.33 27.74L64.88 27.61L64.44 27.46L64 27.3L63.57 27.11L63.15 26.91L62.73 26.69L62.32 26.46L61.92 26.2L61.52 25.93L61.13 25.64L60.76 25.33L60.39 25.01L60.03 24.67L59.56 24.2L59.09 23.76L58.64 23.34L58.18 22.95L57.74 22.58L57.3 22.23L56.86 21.91L56.44 21.61L56.01 21.34L55.59 21.08L55.18 20.86L54.76 20.66L54.35 20.48L53.95 20.32L53.54 20.19L53.14 20.08L52.74 20L52.34 19.94L51.94 19.9L51.55 19.89L51.15 19.9L50.75 19.94L50.35 20L49.95 20.08L49.55 20.19L49.15 20.32L48.74 20.48L48.33 20.66L47.92 20.86L47.5 21.08L47.08 21.34L46.66 21.61L46.23 21.91L45.8 22.23L45.36 22.58L44.91 22.95L44.46 23.34L44 23.76L43.53 24.2L43.06 24.67L42.59 25.14L42.15 25.61L41.73 26.06L41.34 26.52L40.97 26.96L40.62 27.4L40.3 27.84L40 28.26L39.73 28.69L39.48 29.11L39.25 29.52L39.05 29.94L38.87 30.35L38.71 30.75L38.58 31.16L38.48 31.56L38.39 31.96L38.33 32.36L38.3 32.76L38.29 33.15L38.3 33.55L38.33 33.95L38.39 34.35L38.48 34.75L38.58 35.15L38.71 35.55L38.87 35.96L39.05 36.37L39.25 36.78L39.48 37.2L39.73 37.62L40 38.04L40.3 38.47L40.62 38.91L40.97 39.34L41.34 39.79L41.73 40.24L41.79 40.3L41.96 40.43L42.34 40.74L42.7 41.06L43.06 41.4L43.53 41.87L44 42.31L44.46 42.73L44.91 43.12L45.36 43.49L45.8 43.84L46.23 44.16L46.66 44.46L47.08 44.73L47.5 44.98L47.92 45.21L48.33 45.41L48.74 45.59L49.15 45.75L49.55 45.88L49.95 45.99L50.35 46.07L50.75 46.13L51.15 46.17L51.55 46.18L51.94 46.17L52.34 46.13L52.74 46.07L53.14 45.99L53.54 45.88L53.95 45.75L54.35 45.59L54.76 45.41L55.18 45.21L55.59 44.98L56.01 44.73L56.44 44.46L56.86 44.16L57.3 43.84L57.74 43.49L58.18 43.12L58.64 42.73L59.09 42.31L59.56 41.87L60.03 41.4L60.39 41.06L60.76 40.73L61.14 40.42L61.53 40.13L61.92 39.86L62.33 39.6L62.74 39.37L63.15 39.15L63.58 38.94L64.01 38.76L64.45 38.59L64.89 38.44L65.33 38.31L65.78 38.19L66.23 38.1L66.69 38.02L67.14 37.95L67.6 37.91L68.06 37.88L68.52 37.88L68.98 37.88L69.44 37.91L69.9 37.95L70.36 38.02L70.81 38.1L71.26 38.19L71.71 38.31L72.16 38.44L72.6 38.59L73.03 38.76L73.46 38.94L73.89 39.15L74.31 39.37L74.72 39.6L75.12 39.86L75.52 40.13L75.91 40.42L76.28 40.73L76.65 41.06L77.01 41.4L77.35 41.76L77.68 42.13L77.99 42.51L78.28 42.9L78.55 43.29L78.81 43.7L79.04 44.11L79.26 44.53L79.47 44.95L79.65 45.38L79.82 45.82L79.97 46.26L80.1 46.71L80.21 47.16L80.31 47.61L80.39 48.06L80.45 48.52L80.49 48.98L80.52 49.44L80.53 49.9L80.52 50.36L80.49 50.82L80.45 51.28L80.39 51.74L80.31 52.19L80.21 52.64L80.09 53.09L79.96 53.54L79.81 53.98L79.64 54.41L79.46 54.84L79.26 55.27L79.04 55.69L78.8 56.1L78.55 56.5L78.27 56.89L77.98 57.28L77.68 57.66L77.35 58.02L77.01 58.38L76.65 58.72L76.29 59.05L75.91 59.35L75.52 59.64L75.13 59.91L74.73 60.17L74.31 60.4L73.9 60.62L73.47 60.83L73.04 61.01L72.61 61.18L72.16 61.33L71.72 61.46L71.27 61.57L70.82 61.67L70.36 61.75L69.9 61.81L69.44 61.85L68.98 61.88L68.52 61.89L68.06 61.88L67.6 61.85L67.14 61.81L66.68 61.75L66.23 61.67L65.78 61.57L65.33 61.46L64.88 61.33L64.44 61.18L64 61.01L63.57 60.83L63.15 60.62L62.73 60.4L62.32 60.17L61.92 59.91L61.52 59.64L61.13 59.35L60.76 59.05L60.39 58.72L60.03 58.38L59.56 57.91L59.09 57.47L58.64 57.05L58.18 56.66L57.74 56.29L57.3 55.94L56.86 55.62L56.44 55.32L56.01 55.05L55.59 54.8L55.18 54.57L54.76 54.37L54.35 54.19L53.95 54.03L53.54 53.9L53.14 53.8L52.74 53.71L52.34 53.65L51.94 53.62L51.55 53.6L51.15 53.62L50.75 53.65L50.35 53.71L49.95 53.8L49.55 53.9L49.15 54.03L48.74 54.19L48.33 54.37L47.92 54.57L47.5 54.8L47.08 55.05L46.66 55.32L46.23 55.62L45.8 55.94L45.36 56.29L44.91 56.66L44.46 57.05L44.22 57.27L44.03 57.52L43.73 57.89L43.4 58.26L43.06 58.62L42.7 58.96L42.34 59.28L41.96 59.59L41.79 59.72L41.73 59.78L41.34 60.23L40.97 60.67L40.62 61.11L40.3 61.55L40 61.98L39.73 62.4L39.48 62.82L39.25 63.24L39.05 63.65L38.87 64.06L38.71 64.46L38.58 64.87L38.48 65.27L38.39 65.67L38.33 66.07L38.3 66.47L38.29 66.87L38.3 67.26L38.33 67.66L38.39 68.06L38.48 68.46L38.58 68.86L38.71 69.27L38.87 69.67L39.05 70.08L39.25 70.5L39.48 70.91L39.73 71.33L40 71.75L40.3 72.18L40.62 72.62L40.97 73.06L41.34 73.5L41.73 73.96L42.15 74.41L42.59 74.88L43.06 75.35L43.4 75.71L43.73 76.08L44.04 76.46L44.33 76.85L44.6 77.24L44.86 77.65L45.09 78.06L45.31 78.48L45.52 78.9L45.7 79.33L45.87 79.77L46.02 80.21L46.15 80.66L46.26 81.11L46.36 81.56L46.44 82.01L46.5 82.47L46.54 82.93L46.57 83.39L46.58 83.85L46.57 84.31L46.54 84.77L46.5 85.23L46.44 85.69L46.36 86.14L46.26 86.59L46.14 87.04L46.01 87.49L45.86 87.93L45.69 88.36L45.51 88.79L45.31 89.22L45.09 89.64L44.85 90.05L44.6 90.45L44.32 90.84L44.03 91.23L43.73 91.61L43.4 91.97L43.06 92.33L42.7 92.67L42.34 93L41.96 93.3L41.57 93.59L41.18 93.86L40.78 94.12L40.36 94.35L39.95 94.57L39.52 94.78L39.09 94.96L38.66 95.13L38.21 95.28L37.77 95.41L37.32 95.52L36.87 95.62L36.41 95.7L35.95 95.76L35.49 95.8L35.03 95.83L34.57 95.84L34.11 95.83L33.65 95.8L33.19 95.76L32.73 95.7L32.28 95.62L31.82 95.52L31.38 95.41L30.93 95.28L30.49 95.13L30.05 94.96L29.62 94.78L29.2 94.57L28.78 94.35L28.37 94.12L27.97 93.86L27.57 93.59L27.18 93.3L26.81 93L26.44 92.67L26.08 92.33L25.74 91.97L25.41 91.6L25.11 91.22L24.81 90.84L24.54 90.44L24.29 90.04L24.05 89.62L23.83 89.21L23.63 88.78L23.44 88.35L23.28 87.91L23.13 87.47L22.99 87.03L22.88 86.58L22.78 86.12L22.7 85.67L22.64 85.21L22.6 84.75L22.57 84.29L22.57 83.83L22.58 83.37L22.6 82.91L22.65 82.45L22.71 82L22.79 81.54L22.89 81.09L23 80.64L23.13 80.19L23.28 79.75L23.45 79.32L23.63 78.89L23.84 78.46L24.06 78.05L24.29 77.64L24.55 77.23L24.82 76.84L25.11 76.45L25.42 76.08L25.74 75.71L26.08 75.35L26.55 74.88L26.99 74.41L27.41 73.96L27.8 73.5L28.17 73.06L28.52 72.62L28.84 72.18L29.14 71.75L29.41 71.33L29.67 70.91L29.89 70.5L30.09 70.08L30.27 69.67L30.43 69.27L30.56 68.86L30.67 68.46L30.75 68.06L30.81 67.66L30.85 67.26L30.86 66.87L30.85 66.47L30.81 66.07L30.75 65.67L30.67 65.27L30.56 64.87L30.43 64.46L30.27 64.06L30.09 63.65L29.89 63.24L29.67 62.82L29.41 62.4L29.14 61.98L28.84 61.55L28.52 61.11L28.17 60.67L27.8 60.23L27.41 59.78L27.36 59.72L27.18 59.59L26.81 59.28L26.44 58.96L26.08 58.62L25.74 58.26L25.41 57.89L25.11 57.51L24.81 57.12L24.54 56.73L24.29 56.32L24.05 55.91L23.83 55.49L23.63 55.07L23.44 54.64L23.28 54.2L23.13 53.76L22.99 53.31L22.88 52.86L22.78 52.41L22.7 51.96L22.64 51.5L22.6 51.04L22.57 50.58L22.57 50.12L22.57 50.01L22.57 49.88L22.58 49.42L22.6 48.96L22.65 48.5L22.71 48.04L22.79 47.59L22.89 47.14L23 46.69L23.13 46.24L23.28 45.8L23.45 45.37L23.63 44.94L23.84 44.51L24.06 44.1L24.29 43.69L24.55 43.28L24.82 42.89L25.11 42.5L25.42 42.13L25.74 41.76L26.08 41.4L26.44 41.06L26.81 40.74L27.18 40.43L27.36 40.3L27.41 40.24L27.8 39.79L28.17 39.34L28.52 38.91L28.84 38.47L29.14 38.04L29.41 37.62L29.67 37.2L29.89 36.78L30.09 36.37L30.27 35.96L30.43 35.55L30.56 35.15L30.67 34.75L30.75 34.35L30.81 33.95L30.85 33.55L30.86 33.15L30.85 32.76L30.81 32.36L30.75 31.96L30.67 31.56L30.56 31.16L30.43 30.75L30.27 30.35L30.09 29.94L29.89 29.52L29.67 29.11L29.41 28.69L29.14 28.26L28.84 27.84L28.52 27.4L28.17 26.96L27.8 26.52L27.41 26.06L26.99 25.61L26.55 25.14L26.08 24.67L25.74 24.31L25.41 23.94L25.11 23.56L24.81 23.17L24.54 22.78L24.29 22.37L24.05 21.96L23.83 21.54L23.63 21.12L23.44 20.69L23.28 20.25L23.13 19.81L22.99 19.36L22.88 18.91L22.78 18.46L22.7 18.01L22.64 17.55L22.6 17.09L22.57 16.63L22.57 16.17L22.58 15.71L22.6 15.25L22.65 14.79L22.71 14.33L22.79 13.88L22.89 13.43L23 12.98L23.13 12.53L23.28 12.09L23.45 11.66L23.63 11.23L23.84 10.8L24.06 10.38L24.29 9.97L24.55 9.57L24.82 9.18L25.11 8.79L25.42 8.41L25.74 8.05L26.08 7.69L26.44 7.35L26.81 7.02L27.18 6.72L27.57 6.43L27.97 6.16L28.37 5.9L28.78 5.66L29.2 5.44L29.62 5.24L30.05 5.06L30.49 4.89L30.93 4.74L31.38 4.61L31.82 4.5L32.28 4.4L32.73 4.32L33.19 4.26L33.65 4.22L34.11 4.19L34.57 4.18L35.03 4.19L35.49 4.22L35.95 4.26L36.41 4.32L36.87 4.4L37.32 4.5L37.77 4.61L38.21 4.74L38.66 4.89L39.09 5.06L39.52 5.24L39.95 5.44L40.36 5.66L40.78 5.9L41.18 6.16L41.57 6.43L41.96 6.72L42.34 7.02L42.7 7.35L43.06 7.69L43.53 8.16L44 8.6L44.46 9.02L44.91 9.41L45.36 9.78L45.8 10.13L46.23 10.45L46.66 10.75L47.08 11.02L47.5 11.27L47.92 11.5L48.33 11.7L48.74 11.88L49.15 12.04L49.55 12.17L49.95 12.27L50.35 12.36L50.75 12.42L51.15 12.45L51.55 12.46L51.94 12.45L52.34 12.42L52.74 12.36L53.14 12.27L53.54 12.17L53.95 12.04L54.35 11.88L54.76 11.7L55.18 11.5L55.59 11.27L56.01 11.02L56.44 10.75L56.86 10.45L57.3 10.13L57.74 9.78L58.18 9.41L58.64 9.02L59.09 8.6L59.56 8.16L60.03 7.69L60.39 7.35L60.76 7.02L61.14 6.71L61.53 6.42L61.92 6.15L62.33 5.89L62.74 5.65L63.15 5.43L63.58 5.23L64.01 5.04L64.45 4.88L64.89 4.73L65.33 4.59L65.78 4.48L66.23 4.38L66.69 4.3L67.14 4.24L67.6 4.2L68.06 4.17L68.52 4.16L68.98 4.17L69.44 4.2Z" id="b1oFV7AB9L"></path></defs><g><g><g><use xlink:href="#b1oFV7AB9L" opacity="1" fill="#4a90e2" fill-opacity="1"></use><g><use xlink:href="#b1oFV7AB9L" opacity="1" fill-opacity="0" stroke="#000000" stroke-width="1" stroke-opacity="0"></use></g></g></g></g></svg>