<svg xmlns="http://www.w3.org/2000/svg" xmlns:xlink="http://www.w3.org/1999/xlink" viewBox="0 0 233.43 173.11"><defs><style>.cls-1{fill:#c5cbd8;}.cls-2{fill:#ebeef2;}.cls-3{fill:#b6c9e0;}.cls-4{fill:#fff;}.cls-5{fill:none;stroke:#bc3131;stroke-miterlimit:10;stroke-width:5px;}.cls-6{fill:#f7f7f7;}.cls-7{fill:url(#linear-gradient);}.cls-8{fill:url(#linear-gradient-2);}.cls-9{fill:url(#linear-gradient-3);}.cls-10{fill:url(#linear-gradient-4);}.cls-11{fill:url(#linear-gradient-5);}</style><linearGradient id="linear-gradient" x1="59.76" y1="46.28" x2="168.8" y2="46.28" gradientUnits="userSpaceOnUse"><stop offset="0" stop-color="#e0e0e0"/><stop offset="1" stop-color="#4a90e2"/></linearGradient><linearGradient id="linear-gradient-2" x1="199.9" y1="124.97" x2="246.73" y2="124.97" xlink:href="#linear-gradient"/><linearGradient id="linear-gradient-3" x1="101.32" y1="172.19" x2="210.35" y2="172.19" xlink:href="#linear-gradient"/><linearGradient id="linear-gradient-4" x1="62.48" y1="67.62" x2="45.84" y2="107.54" gradientUnits="userSpaceOnUse"><stop offset="0" stop-color="#042c54"/><stop offset="0.79" stop-color="#4a90e2"/><stop offset="0.98" stop-color="#70c0ea"/></linearGradient><linearGradient id="linear-gradient-5" x1="131.2" y1="54.86" x2="125.86" y2="106.18" xlink:href="#linear-gradient-4"/></defs><g id="BG"><circle class="cls-1" cx="101.35" cy="7.87" r="7.87"/><circle class="cls-2" cx="147.81" cy="23.61" r="7.87"/><circle class="cls-2" cx="163.55" cy="7.87" r="7.87"/><circle class="cls-1" cx="54.52" cy="55.08" r="7.87"/><circle class="cls-1" cx="163.36" cy="70.82" r="7.87"/><circle class="cls-3" cx="39.16" cy="102.29" r="7.87"/><circle class="cls-2" cx="178.91" cy="86.56" r="7.87"/><circle class="cls-4" cx="54.52" cy="118.03" r="7.87"/><circle class="cls-3" cx="39.16" cy="133.77" r="7.87"/><circle class="cls-3" cx="7.87" cy="133.77" r="7.87"/><circle class="cls-3" cx="70.25" cy="133.77" r="7.87"/><circle class="cls-1" cx="132.45" cy="133.77" r="7.87"/><circle class="cls-2" cx="178.91" cy="118.03" r="7.87"/><circle class="cls-2" cx="163.55" cy="133.77" r="7.87"/><circle class="cls-2" cx="210.01" cy="118.03" r="7.87"/><circle class="cls-3" cx="194.65" cy="133.77" r="7.87"/><circle class="cls-3" cx="23.42" cy="149.51" r="7.87"/><circle class="cls-2" cx="70.25" cy="165.25" r="7.87"/><circle class="cls-2" cx="101.35" cy="165.25" r="7.87"/><circle class="cls-3" cx="163.55" cy="165.25" r="7.87"/><circle class="cls-3" cx="178.91" cy="149.51" r="7.87"/><circle class="cls-3" cx="194.65" cy="165.25" r="7.87"/><path class="cls-5" d="M94,156.45" transform="translate(-23.78 -22.68)"/><path class="cls-5" d="M202.69,140.71" transform="translate(-23.78 -22.68)"/><path class="cls-3" d="M187.33,156.45" transform="translate(-23.78 -22.68)"/></g><g id="Feeless"><circle class="cls-6" cx="102.78" cy="86.56" r="41.98"/><path class="cls-7" d="M142.06,38.57a7.86,7.86,0,0,0-7.54,2.61,7.19,7.19,0,0,1-5.45,2.6h-6.66a10.12,10.12,0,0,1-7.34-2.94,7.86,7.86,0,0,0-11.35,0,10.12,10.12,0,0,1-7.34,2.94H91.31A10.13,10.13,0,0,1,84,40.84a7.86,7.86,0,0,0-11.35,0,10.12,10.12,0,0,1-7.34,2.94H59.93a10.35,10.35,0,0,1-7.23-3.12,7.87,7.87,0,1,0,.17,11.07,10.14,10.14,0,0,1,7.34-2.95h5.07a10.13,10.13,0,0,1,7.34,2.95,7.86,7.86,0,0,0,11.35,0,10.14,10.14,0,0,1,7.34-2.95h5.07a10.13,10.13,0,0,1,7.34,2.95,7.86,7.86,0,0,0,11.35,0,10.14,10.14,0,0,1,7.34-2.95h5.07a10.14,10.14,0,0,1,7.34,2.95,7.87,7.87,0,1,0,7.24-13.16Z" transform="translate(-23.78 -22.68)"/><path class="cls-8" d="M220,117.26a7.84,7.84,0,0,0-7.07,2.09,10.35,10.35,0,0,1-7.23,3.12h-5.64a10.38,10.38,0,0,1-7.23-3.12,7.87,7.87,0,1,0,.17,11.07,10.13,10.13,0,0,1,7.35-2.95h5.06a10.13,10.13,0,0,1,7.35,2.95A7.87,7.87,0,1,0,220,117.26Z" transform="translate(-23.78 -22.68)"/><path class="cls-9" d="M173.16,164.47a7.86,7.86,0,0,0-7.07,2.1,10.39,10.39,0,0,1-7.23,3.12h-5.35a10.13,10.13,0,0,1-7.34-2.95,7.86,7.86,0,0,0-11.35,0,10.14,10.14,0,0,1-7.34,2.95h-5.07a10.14,10.14,0,0,1-7.34-2.95,7.86,7.86,0,0,0-11.35,0,10.13,10.13,0,0,1-7.34,2.95H91a10.39,10.39,0,0,1-7.23-3.12A7.86,7.86,0,1,0,84,177.63a10.13,10.13,0,0,1,7.34-2.94h5.07a10.12,10.12,0,0,1,7.34,2.94,7.86,7.86,0,0,0,11.35,0,10.13,10.13,0,0,1,7.34-2.94h5.07a10.13,10.13,0,0,1,7.34,2.94,7.86,7.86,0,0,0,11.35,0,10.12,10.12,0,0,1,7.34-2.94h5.07a10.13,10.13,0,0,1,7.34,2.94,7.87,7.87,0,1,0,7.24-13.16Z" transform="translate(-23.78 -22.68)"/><path class="cls-3" d="M250.91,54.31a7.85,7.85,0,0,0-7.07,2.09,10.35,10.35,0,0,1-7.23,3.12h-5.35a10.12,10.12,0,0,1-7.34-2.94,7.84,7.84,0,0,0-11.35,0,10.13,10.13,0,0,1-7.34,2.94h-5.07a10.12,10.12,0,0,1-7.34-2.94,7.84,7.84,0,0,0-11.35,0,10.13,10.13,0,0,1-7.34,2.94h-5.35a10.35,10.35,0,0,1-7.23-3.12,7.87,7.87,0,1,0,.17,11.07,10.09,10.09,0,0,1,7.34-3h5.07a10.1,10.1,0,0,1,7.34,3,7.86,7.86,0,0,0,11.35,0,10.09,10.09,0,0,1,7.34-3h5.07a10.1,10.1,0,0,1,7.34,3,7.86,7.86,0,0,0,11.35,0,10.09,10.09,0,0,1,7.34-3h5.07a10.1,10.1,0,0,1,7.34,3,7.87,7.87,0,1,0,7.24-13.16Z" transform="translate(-23.78 -22.68)"/><path class="cls-10" d="M64.42,85.81a7.74,7.74,0,0,0-2.7-.11,5.93,5.93,0,0,1-4.94-1.8l-.05-.05a6,6,0,0,1-1.75-5,7.87,7.87,0,1,0-9.45,6.56,7.68,7.68,0,0,0,2.69.11,5.92,5.92,0,0,1,4.94,1.8l.07.06a6.1,6.1,0,0,1,1.72,5,6.94,6.94,0,0,0-.07,1,7,7,0,0,0,.07,1,6.12,6.12,0,0,1-1.72,5l-.07.06a5.88,5.88,0,0,1-4.94,1.79,8.19,8.19,0,0,0-2.69.11A7.89,7.89,0,1,0,55,108.11a6,6,0,0,1,1.75-5l.05,0A6.44,6.44,0,0,1,62,101.33c.24,0,.49,0,.74,0a7.87,7.87,0,0,0,1.67-15.56Z" transform="translate(-23.78 -22.68)"/><path class="cls-11" d="M141.14,104.15a7,7,0,0,0-9.56,0c-.18.17-.35.35-.52.54a5.78,5.78,0,0,1-4.32,2h-.34a5.66,5.66,0,0,1-4.32-2l-.13-.15-.09-.09h0l-.13-.14-.15-.15h0l-.08-.07a1.07,1.07,0,0,0-.16-.14,5.86,5.86,0,0,1-2-4.33v-.33a5.59,5.59,0,0,1,2-4.32l.16-.15.09-.07h0l.14-.14.15-.14h0l.07-.08.15-.16a5.76,5.76,0,0,1,4.32-2h.33a5.6,5.6,0,0,1,4.32,2,6.76,6.76,0,0,0,.52.55,7,7,0,1,0,0-10.19l-.52.54a5.79,5.79,0,0,1-4.32,2h-.34a5.62,5.62,0,0,1-4.32-2,6.67,6.67,0,0,0-.52-.55,6.91,6.91,0,0,0-4.44-1.88h-.68l-.27,0h-.06l-.26,0h-.07l-.24,0-.09,0-.22,0-.11,0-.2.05-.14,0-.17.06-.16,0-.15,0-.19.08-.12,0-.22.1-.08,0-.27.14,0,0a7,7,0,0,0-1.42,1l0,0-.13.13-.13.13,0,0a7.33,7.33,0,0,0-1,1.42l0,0-.13.27a.25.25,0,0,0,0,.07c0,.08-.07.16-.1.23a1.17,1.17,0,0,1,0,.11,1.67,1.67,0,0,1-.08.2s0,.09,0,.14a.85.85,0,0,0-.06.17,1,1,0,0,0-.05.16.83.83,0,0,0,0,.15,1.21,1.21,0,0,0,0,.18l0,.13a1.55,1.55,0,0,0,0,.21.36.36,0,0,0,0,.11,1.43,1.43,0,0,0,0,.22s0,.06,0,.1l0,.23a.28.28,0,0,1,0,.09c0,.08,0,.16,0,.23s0,.22,0,.33v.05c0,.1,0,.2,0,.3v0a7,7,0,0,0,1.86,4.41,6.63,6.63,0,0,0,.54.52,5.78,5.78,0,0,1,2,4.32v.34a5.66,5.66,0,0,1-2,4.32c-.19.16-.37.34-.55.52a7,7,0,0,0-1.88,4.44v0a1.15,1.15,0,0,1,0,.19v.2c0,.1,0,.2,0,.3v0a6.94,6.94,0,0,0,1.86,4.41,5.29,5.29,0,0,0,.54.52,5.78,5.78,0,0,1,2,4.32v.34a5.64,5.64,0,0,1-2,4.32c-.19.16-.37.34-.55.52a7,7,0,1,0,10.19,0,5.29,5.29,0,0,0-.54-.52,5.82,5.82,0,0,1-2-4.32v-.34a5.56,5.56,0,0,1,2-4.31l.16-.15.09-.08h0a.93.93,0,0,0,.14-.14l.15-.14h0l.07-.08.15-.16a5.79,5.79,0,0,1,4.32-2h.33a5.6,5.6,0,0,1,4.32,2,6.76,6.76,0,0,0,.52.55,7,7,0,1,0,9.59-10.16Z" transform="translate(-23.78 -22.68)"/></g></svg>