<svg id="Nano" xmlns="http://www.w3.org/2000/svg" xmlns:xlink="http://www.w3.org/1999/xlink" viewBox="0 0 186.97 173.11"><defs><style>.cls-1{fill:#f2f3f4;}.cls-2{fill:#c5cbd8;}.cls-3{fill:#ebeef2;}.cls-4{fill:#dfe8ef;}.cls-5{fill:#b6c9e0;}.cls-6{fill:url(#linear-gradient);}.cls-7{fill:url(#linear-gradient-2);}.cls-8{fill:url(#linear-gradient-3);}</style><linearGradient id="linear-gradient" x1="42.99" y1="140.72" x2="128.54" y2="70.15" gradientTransform="translate(103.84 -16.16) rotate(45)" gradientUnits="userSpaceOnUse"><stop offset="0" stop-color="#042c87"/><stop offset="0.52" stop-color="#478bde"/><stop offset="0.79" stop-color="#4a90e2"/><stop offset="0.98" stop-color="#70c0ea"/></linearGradient><linearGradient id="linear-gradient-2" x1="47.11" y1="145.71" x2="132.65" y2="75.14" gradientTransform="matrix(1, 0, 0, 1, 0, 0)" xlink:href="#linear-gradient"/><linearGradient id="linear-gradient-3" x1="66.75" y1="169.52" x2="152.3" y2="98.95" gradientTransform="matrix(1, 0, 0, 1, 0, 0)" xlink:href="#linear-gradient"/></defs><circle class="cls-1" cx="7.87" cy="23.61" r="7.87"/><circle class="cls-1" cx="38.97" cy="23.61" r="7.87"/><circle class="cls-2" cx="101.17" cy="23.61" r="7.87"/><circle class="cls-3" cx="23.61" cy="7.87" r="7.87"/><circle class="cls-3" cx="54.71" cy="7.87" r="7.87"/><circle class="cls-3" cx="85.8" cy="7.87" r="7.87"/><circle class="cls-3" cx="148" cy="7.87" r="7.87"/><circle class="cls-2" cx="163.36" cy="23.61" r="7.87"/><circle class="cls-4" cx="179.1" cy="39.34" r="7.87"/><circle class="cls-1" cx="179.1" cy="7.87" r="7.87"/><circle class="cls-5" cx="7.87" cy="55.08" r="7.87"/><circle class="cls-2" cx="38.97" cy="55.08" r="7.87"/><circle class="cls-4" cx="116.9" cy="70.82" r="7.87"/><circle class="cls-2" cx="163.36" cy="55.08" r="7.87"/><circle class="cls-2" cx="179.1" cy="70.82" r="7.87"/><circle class="cls-2" cx="23.61" cy="102.29" r="7.87"/><circle class="cls-5" cx="148" cy="102.29" r="7.87"/><circle class="cls-5" cx="179.1" cy="102.29" r="7.87"/><circle class="cls-2" cx="7.87" cy="118.03" r="7.87"/><circle class="cls-2" cx="70.07" cy="118.03" r="7.87"/><circle class="cls-5" cx="23.61" cy="133.77" r="7.87"/><circle class="cls-2" cx="85.8" cy="133.77" r="7.87"/><circle class="cls-5" cx="116.9" cy="133.77" r="7.87"/><circle class="cls-4" cx="132.26" cy="118.03" r="7.87"/><circle class="cls-1" cx="179.1" cy="133.77" r="7.87"/><circle class="cls-1" cx="7.87" cy="149.51" r="7.87"/><circle class="cls-2" cx="38.97" cy="149.51" r="7.87"/><circle class="cls-5" cx="54.71" cy="165.25" r="7.87"/><circle class="cls-1" cx="85.8" cy="165.25" r="7.87"/><circle class="cls-1" cx="132.26" cy="149.51" r="7.87"/><circle class="cls-1" cx="148" cy="165.25" r="7.87"/><circle class="cls-5" cx="179.1" cy="165.25" r="7.87"/><circle class="cls-6" cx="71.42" cy="117.27" r="7.87" transform="translate(-78.72 69.88) rotate(-45)"/><path class="cls-7" d="M119.57,93.84a7.78,7.78,0,0,0-2.71-.11,5.29,5.29,0,0,1-4.53-1.47l-.63-.64A5.46,5.46,0,0,1,110.3,87a8,8,0,0,0-.07-2.75,7.87,7.87,0,0,0-15.58,1.58,6.28,6.28,0,0,0,0,.75,6.57,6.57,0,0,1-1.77,5.32l-.07.07a6.07,6.07,0,0,1-5,1.8,8.06,8.06,0,0,0-2.67.1,7.87,7.87,0,1,0,9.34,9.34,7.79,7.79,0,0,0,.1-2.67,6.12,6.12,0,0,1,1.8-5l.07-.07a6.56,6.56,0,0,1,5.32-1.76q.38,0,.75,0a6.17,6.17,0,0,0,.75,0,6.22,6.22,0,0,1,5.1,1.74,6,6,0,0,1,1.73,5,7.87,7.87,0,1,0,9.47-6.53Z" transform="translate(-16.72 -14.97)"/><path class="cls-8" d="M163.24,78.06A7.87,7.87,0,0,0,157,84.18a8,8,0,0,0-.09,2.7,6,6,0,0,1-1.77,5A6.07,6.07,0,0,1,150,93.73a8,8,0,0,0-2.58.08,7.86,7.86,0,0,0-6.24,9,5.27,5.27,0,0,1-1.37,4.62l-.6.61a5.32,5.32,0,0,1-4.57,1.45,8.1,8.1,0,0,0-2.72.1,7.87,7.87,0,1,0,9.45,6.53,5.32,5.32,0,0,1,1.39-4.56l.77-.77a5.22,5.22,0,0,1,4.43-1.43,7.89,7.89,0,0,0,8.7-6.25,7.69,7.69,0,0,0,.1-2.52,6.09,6.09,0,0,1,1.77-5l.15-.15a6.08,6.08,0,0,1,5-1.83,7.59,7.59,0,0,0,2.63-.12,7.87,7.87,0,0,0-3.14-15.42Z" transform="translate(-16.72 -14.97)"/><path class="cls-5" d="M85.22,30.86A7.87,7.87,0,0,0,79,37.12a8.06,8.06,0,0,0,0,2.77,5.28,5.28,0,0,1-1.39,4.68l-.52.52a5.35,5.35,0,0,1-4.6,1.43,7.9,7.9,0,1,0,6.7,6.71,5.37,5.37,0,0,1,1.43-4.6l.78-.78a5.33,5.33,0,0,1,4.46-1.45,8,8,0,0,0,2.65-.15,7.87,7.87,0,0,0-3.31-15.39Z" transform="translate(-16.72 -14.97)"/><path class="cls-5" d="M150.73,62.38a7.94,7.94,0,0,0-2.6-.15,6.06,6.06,0,0,1-4.88-1.81l0,0a6.54,6.54,0,0,1-1.77-5.32,6,6,0,0,0,0-.74,6.17,6.17,0,0,0,0-.75,6.57,6.57,0,0,1,1.77-5.32l0,0a6,6,0,0,1,4.88-1.82,7.94,7.94,0,0,0,2.6-.15,7.87,7.87,0,1,0-9.49-9.13,8.06,8.06,0,0,0,0,2.77,5.3,5.3,0,0,1-1.39,4.68l-.52.52a5.36,5.36,0,0,1-4.6,1.43,7.87,7.87,0,1,0-1.09,15.67,8.74,8.74,0,0,0,1-.07,5.73,5.73,0,0,1,4.85,1.61h0a5.81,5.81,0,0,1,1.73,5,8,8,0,0,0,0,2.76,7.87,7.87,0,1,0,9.49-9.13Z" transform="translate(-16.72 -14.97)"/><path class="cls-5" d="M119.64,125.33a8.1,8.1,0,0,0-2.67-.14,5.38,5.38,0,0,1-4.45-1.45l-.78-.79a5.36,5.36,0,0,1-1.43-4.59,7.87,7.87,0,1,0-9.43,6.61,8.14,8.14,0,0,0,2.73.09,5.38,5.38,0,0,1,4.6,1.43l.52.52a5.3,5.3,0,0,1,1.39,4.69,8,8,0,0,0,0,2.76,7.87,7.87,0,1,0,9.5-9.13Z" transform="translate(-16.72 -14.97)"/><path class="cls-4" d="M57.44,93.86a7.8,7.8,0,0,0-2.66-.15,5.33,5.33,0,0,1-4.46-1.45l-.78-.78a5.4,5.4,0,0,1-1.43-4.6A7.66,7.66,0,0,0,48,84.15a7.87,7.87,0,1,0-9.34,9.34,7.66,7.66,0,0,0,2.73.09A5.4,5.4,0,0,1,46,95l.52.53a5.28,5.28,0,0,1,1.39,4.68A8.07,8.07,0,0,0,48,103a7.87,7.87,0,1,0,9.49-9.13Z" transform="translate(-16.72 -14.97)"/><path class="cls-5" d="M85.22,62.34A7.84,7.84,0,0,0,79,68.6a8,8,0,0,0,0,2.76,5.3,5.3,0,0,1-1.39,4.69l-.52.52A5.38,5.38,0,0,1,72.51,78a8.14,8.14,0,0,0-2.73.09,7.89,7.89,0,1,0,9.43,6.61,5.39,5.39,0,0,1,1.43-4.6l.78-.78a5.4,5.4,0,0,1,4.46-1.45,8,8,0,0,0,2.66-.14,7.87,7.87,0,0,0-3.32-15.39Z" transform="translate(-16.72 -14.97)"/><path class="cls-5" d="M88.47,156.79a7.78,7.78,0,0,0-2.71-.11,5.29,5.29,0,0,1-4.53-1.47l-.63-.64a5.46,5.46,0,0,1-1.4-4.66,8,8,0,0,0-.07-2.75,7.89,7.89,0,1,0-6.69,9.38A5.29,5.29,0,0,1,77,158l.63.65a5.4,5.4,0,0,1,1.4,4.66,7.87,7.87,0,1,0,9.47-6.53Z" transform="translate(-16.72 -14.97)"/><path class="cls-5" d="M178.59,125.27a7.86,7.86,0,0,0-6.22,6.15,8,8,0,0,0-.07,2.75,5.46,5.46,0,0,1-1.4,4.66l-.63.65a5.31,5.31,0,0,1-4.53,1.46,7.88,7.88,0,0,0-8.76,6.37,7.87,7.87,0,0,0,15.45,3,8,8,0,0,0,.07-2.75,5.43,5.43,0,0,1,1.4-4.66l.63-.65a5.28,5.28,0,0,1,4.53-1.46,8.06,8.06,0,0,0,2.71-.12,7.87,7.87,0,0,0-3.18-15.42Z" transform="translate(-16.72 -14.97)"/><path class="cls-4" d="M-169.33-42.08" transform="translate(-16.72 -14.97)"/></svg>